<mxfile host="app.diagrams.net" modified="2023-08-27T13:05:30.370Z" agent="Mozilla/5.0 (Windows NT 10.0; Win64; x64) AppleWebKit/537.36 (KHTML, like Gecko) Chrome/116.0.0.0 Safari/537.36" etag="RLUOBa_0TtV8bg0rkx3y" version="21.6.9" type="device">
  <diagram name="Page-1" id="qy0oB2zCIadY7ktbwaaA">
    <mxGraphModel dx="1050" dy="542" grid="1" gridSize="10" guides="1" tooltips="1" connect="1" arrows="1" fold="1" page="1" pageScale="1" pageWidth="850" pageHeight="1100" math="0" shadow="0">
      <root>
        <mxCell id="0" />
        <mxCell id="1" parent="0" />
        <mxCell id="gxPeQNGUF9-dfzADdt7I-13" value="PARCARE" style="whiteSpace=wrap;html=1;aspect=fixed;fillColor=#dae8fc;strokeColor=#6c8ebf;" vertex="1" parent="1">
          <mxGeometry x="360" y="470" width="80" height="80" as="geometry" />
        </mxCell>
        <mxCell id="gxPeQNGUF9-dfzADdt7I-15" value="CUSTOMER" style="whiteSpace=wrap;html=1;aspect=fixed;fillColor=#fff2cc;strokeColor=#d6b656;" vertex="1" parent="1">
          <mxGeometry x="360" y="40" width="80" height="80" as="geometry" />
        </mxCell>
        <mxCell id="gxPeQNGUF9-dfzADdt7I-17" value="RENTER" style="ellipse;whiteSpace=wrap;html=1;aspect=fixed;fontSize=8;fillColor=#f8cecc;strokeColor=#b85450;" vertex="1" parent="1">
          <mxGeometry x="120" y="270" width="40" height="40" as="geometry" />
        </mxCell>
        <mxCell id="gxPeQNGUF9-dfzADdt7I-18" value="HOST" style="ellipse;whiteSpace=wrap;html=1;aspect=fixed;fontSize=8;fillColor=#e1d5e7;strokeColor=#9673a6;" vertex="1" parent="1">
          <mxGeometry x="640" y="270" width="40" height="40" as="geometry" />
        </mxCell>
        <mxCell id="gxPeQNGUF9-dfzADdt7I-20" value="APP" style="rhombus;whiteSpace=wrap;html=1;fillColor=#d5e8d4;strokeColor=#82b366;" vertex="1" parent="1">
          <mxGeometry x="270" y="150" width="260" height="280" as="geometry" />
        </mxCell>
        <mxCell id="gxPeQNGUF9-dfzADdt7I-21" value="TIME LIMIT" style="whiteSpace=wrap;html=1;aspect=fixed;fontSize=8;" vertex="1" parent="1">
          <mxGeometry x="300" y="265" width="50" height="50" as="geometry" />
        </mxCell>
        <mxCell id="gxPeQNGUF9-dfzADdt7I-22" value="SEARCH" style="whiteSpace=wrap;html=1;aspect=fixed;fontSize=8;" vertex="1" parent="1">
          <mxGeometry x="375" y="200" width="50" height="50" as="geometry" />
        </mxCell>
        <mxCell id="gxPeQNGUF9-dfzADdt7I-23" value="PAYMENTH&lt;br&gt;METHOD" style="whiteSpace=wrap;html=1;aspect=fixed;fontSize=8;" vertex="1" parent="1">
          <mxGeometry x="450" y="265" width="50" height="50" as="geometry" />
        </mxCell>
        <mxCell id="gxPeQNGUF9-dfzADdt7I-25" value="" style="endArrow=classic;html=1;rounded=0;exitX=1;exitY=0.5;exitDx=0;exitDy=0;entryX=0;entryY=0.5;entryDx=0;entryDy=0;" edge="1" parent="1" source="gxPeQNGUF9-dfzADdt7I-17" target="gxPeQNGUF9-dfzADdt7I-20">
          <mxGeometry width="50" height="50" relative="1" as="geometry">
            <mxPoint x="160" y="70" as="sourcePoint" />
            <mxPoint x="308.8100208768267" y="138.20459290187887" as="targetPoint" />
          </mxGeometry>
        </mxCell>
        <mxCell id="gxPeQNGUF9-dfzADdt7I-27" value="" style="endArrow=classic;html=1;rounded=0;exitX=0;exitY=0.5;exitDx=0;exitDy=0;entryX=1;entryY=0.5;entryDx=0;entryDy=0;" edge="1" parent="1" source="gxPeQNGUF9-dfzADdt7I-18" target="gxPeQNGUF9-dfzADdt7I-20">
          <mxGeometry width="50" height="50" relative="1" as="geometry">
            <mxPoint x="150" y="300" as="sourcePoint" />
            <mxPoint x="280" y="300" as="targetPoint" />
          </mxGeometry>
        </mxCell>
        <mxCell id="gxPeQNGUF9-dfzADdt7I-29" value="" style="endArrow=classic;html=1;rounded=0;exitX=0.5;exitY=1;exitDx=0;exitDy=0;entryX=0.5;entryY=0;entryDx=0;entryDy=0;" edge="1" parent="1" source="gxPeQNGUF9-dfzADdt7I-20" target="gxPeQNGUF9-dfzADdt7I-13">
          <mxGeometry width="50" height="50" relative="1" as="geometry">
            <mxPoint x="160" y="310" as="sourcePoint" />
            <mxPoint x="290" y="310" as="targetPoint" />
          </mxGeometry>
        </mxCell>
        <mxCell id="gxPeQNGUF9-dfzADdt7I-30" value="" style="endArrow=classic;html=1;rounded=0;exitX=0;exitY=0.5;exitDx=0;exitDy=0;entryX=1;entryY=0;entryDx=0;entryDy=0;" edge="1" parent="1" source="gxPeQNGUF9-dfzADdt7I-15" target="gxPeQNGUF9-dfzADdt7I-17">
          <mxGeometry width="50" height="50" relative="1" as="geometry">
            <mxPoint x="410" y="440" as="sourcePoint" />
            <mxPoint x="410" y="480" as="targetPoint" />
          </mxGeometry>
        </mxCell>
        <mxCell id="gxPeQNGUF9-dfzADdt7I-31" value="" style="endArrow=classic;html=1;rounded=0;exitX=1;exitY=0.5;exitDx=0;exitDy=0;entryX=0;entryY=0;entryDx=0;entryDy=0;" edge="1" parent="1" source="gxPeQNGUF9-dfzADdt7I-15" target="gxPeQNGUF9-dfzADdt7I-18">
          <mxGeometry width="50" height="50" relative="1" as="geometry">
            <mxPoint x="370" y="90" as="sourcePoint" />
            <mxPoint x="144" y="286" as="targetPoint" />
          </mxGeometry>
        </mxCell>
        <mxCell id="gxPeQNGUF9-dfzADdt7I-32" value="COMMUN&lt;br&gt;ICATION" style="whiteSpace=wrap;html=1;aspect=fixed;fontSize=8;" vertex="1" parent="1">
          <mxGeometry x="375" y="330" width="50" height="50" as="geometry" />
        </mxCell>
      </root>
    </mxGraphModel>
  </diagram>
</mxfile>
